<svg xmlns="http://www.w3.org/2000/svg" viewBox="0 0 800 1000" width="800" height="1000">
  <defs>
    <linearGradient id="sky" x1="0" y1="0" x2="0" y2="1">
      <stop offset="0" stop-color="#9fd3ea"/>
      <stop offset="1" stop-color="#dff1f6"/>
    </linearGradient>
    <linearGradient id="sea" x1="0" y1="0" x2="0" y2="1">
      <stop offset="0" stop-color="#2d8fb3"/>
      <stop offset="1" stop-color="#1f6f95"/>
    </linearGradient>
    <linearGradient id="sand" x1="0" y1="0" x2="0" y2="1">
      <stop offset="0" stop-color="#f1dfbd"/>
      <stop offset="1" stop-color="#e3c897"/>
    </linearGradient>
  </defs>
  <rect width="800" height="1000" fill="url(#sky)"/>
  <ellipse cx="220" cy="230" rx="120" ry="30" fill="#fff" opacity="0.7"/>
  <ellipse cx="300" cy="210" rx="80" ry="26" fill="#fff" opacity="0.7"/>
  <ellipse cx="620" cy="310" rx="90" ry="20" fill="#fff" opacity="0.55"/>
  <rect y="470" width="800" height="530" fill="url(#sea)"/>
  <path d="M0 560 Q 100 545 200 560 T 400 560 T 600 560 T 800 560" fill="none" stroke="#7cc3dc" stroke-width="5" opacity="0.6"/>
  <path d="M0 640 Q 100 622 200 640 T 400 640 T 600 640 T 800 640" fill="none" stroke="#7cc3dc" stroke-width="6" opacity="0.5"/>
  <path d="M0 760 C 150 700 300 740 420 720 S 680 700 800 740 L 800 1000 L 0 1000 Z" fill="url(#sand)"/>
  <path d="M0 760 C 150 700 300 740 420 720 S 680 700 800 740" fill="none" stroke="#ffffff" stroke-width="14" opacity="0.85"/>
  <path d="M0 790 C 180 745 320 770 460 752 S 690 740 800 770" fill="none" stroke="#ffffff" stroke-width="5" opacity="0.4"/>
  <circle cx="610" cy="880" r="16" fill="#f4a3a0"/>
  <path d="M592 880 A 18 18 0 0 1 628 880" fill="none" stroke="#d9746f" stroke-width="3"/>
</svg>
